<svg xmlns="http://www.w3.org/2000/svg" viewBox="0 0 44 60" width="44" height="60">
  <!-- Shoe sole imprint: wider heel at bottom, narrowed arch on inner side, rounded toe box -->
  <path d="M 20,56 C 11,56 6,50 6,44 C 6,38 8,33 9,29 C 9.5,25 9,21 10,15 C 11,9 14,5 19,4 C 23,3 27,5 30,10 C 32,14 32,20 31,26 C 30,31 30,37 30,43 C 30,50 26,57 20,56 Z" fill="#2d2520" opacity="0.9"/>
  <!-- Heel tread pad -->
  <ellipse cx="20" cy="48" rx="7.5" ry="4.5" fill="#f5f0e8" opacity="0.2"/>
  <!-- Ball tread ridges -->
  <rect x="14" y="33" width="13" height="2.2" rx="1.1" fill="#f5f0e8" opacity="0.2"/>
  <rect x="13" y="28.5" width="14" height="2.2" rx="1.1" fill="#f5f0e8" opacity="0.2"/>
  <!-- Ball dots -->
  <circle cx="17" cy="23" r="2" fill="#f5f0e8" opacity="0.2"/>
  <circle cx="23" cy="22" r="2" fill="#f5f0e8" opacity="0.2"/>
  <circle cx="27" cy="26" r="1.6" fill="#f5f0e8" opacity="0.2"/>
  <!-- Toe box dots -->
  <circle cx="19" cy="11" r="1.8" fill="#f5f0e8" opacity="0.18"/>
  <circle cx="25" cy="13" r="1.6" fill="#f5f0e8" opacity="0.18"/>
</svg>
